# Blender 4.0.2
# www.blender.org
mtllib emeraldvoxtest.mtl
o Circle
v 0.301537 2.333475 -0.712731
v -0.290758 2.333475 -0.717196
v -0.712731 2.333475 -0.301537
v -0.717196 2.333475 0.290758
v -0.301537 2.333475 0.712731
v 0.290758 2.333475 0.717196
v 0.712731 2.333475 0.301537
v 0.717196 2.333475 -0.290758
v 0.609270 1.532497 -1.440106
v -0.587490 1.532497 -1.449127
v -1.440106 1.532497 -0.609270
v -1.449127 1.532497 0.587490
v -0.609270 1.532497 1.440106
v 0.587490 1.532497 1.449127
v 1.440106 1.532497 0.609270
v 1.449127 1.532497 -0.587490
v 0.609270 1.497603 -1.440106
v -0.587490 1.497603 -1.449127
v -1.440106 1.497603 -0.609270
v -1.449127 1.497603 0.587490
v -0.609270 1.497603 1.440106
v 0.587490 1.497603 1.449127
v 1.440106 1.497603 0.609270
v 1.449127 1.497603 -0.587490
v 0.002314 0.123883 -0.005469
v -0.002231 0.123883 -0.005503
v -0.005469 0.123883 -0.002314
v -0.005503 0.123883 0.002231
v -0.002314 0.123883 0.005469
v 0.002231 0.123883 0.005503
v 0.005469 0.123883 0.002314
v 0.005503 0.123883 -0.002231
vn -0.0000 -1.0000 -0.0000
vn -0.7018 -0.0000 -0.7124
vn 0.7392 -0.6734 0.0056
vn -0.0056 -0.6734 0.7392
vn -0.5267 -0.6734 0.5188
vn -0.5188 -0.6734 -0.5267
vn 0.5267 -0.6734 -0.5188
vn 0.5188 -0.6734 0.5267
vn -0.7392 -0.6734 -0.0056
vn 0.0056 -0.6734 -0.7392
vn -0.0052 0.7234 0.6904
vn 0.7124 -0.0000 -0.7018
vn 0.7018 -0.0000 0.7124
vn -1.0000 -0.0000 -0.0075
vn 0.0075 -0.0000 -1.0000
vn 1.0000 -0.0000 0.0075
vn -0.0075 -0.0000 1.0000
vn -0.7124 -0.0000 0.7018
vn -0.0000 1.0000 -0.0000
vn -0.4919 0.7234 0.4845
vn -0.4845 0.7234 -0.4919
vn 0.4919 0.7234 -0.4845
vn 0.4845 0.7234 0.4919
vn -0.6904 0.7234 -0.0052
vn 0.0052 0.7234 -0.6904
vn 0.6904 0.7234 0.0052
vn -0.0052 0.7234 0.6905
vn 0.0001 1.0000 -0.0000
vn -0.0001 1.0000 -0.0000
vn 0.0052 0.7234 -0.6905
vt 0.000000 0.000000
s 0
usemtl Material.001
f 7/1/1 5/1/1 3/1/1
f 15/1/2 22/1/2 14/1/2
f 4/1/3 11/1/3 3/1/3
f 2/1/4 9/1/4 1/1/4
f 1/1/5 16/1/5 8/1/5
f 7/1/6 14/1/6 6/1/6
f 5/1/7 12/1/7 4/1/7
f 3/1/8 10/1/8 2/1/8
f 8/1/9 15/1/9 7/1/9
f 6/1/10 13/1/10 5/1/10
f 18/1/11 25/1/11 17/1/11
f 13/1/12 20/1/12 12/1/12
f 11/1/13 18/1/13 10/1/13
f 16/1/14 23/1/14 15/1/14
f 14/1/15 21/1/15 13/1/15
f 12/1/16 19/1/16 11/1/16
f 10/1/17 17/1/17 9/1/17
f 9/1/18 24/1/18 16/1/18
f 29/1/19 31/1/19 25/1/19
f 17/1/20 32/1/20 24/1/20
f 23/1/21 30/1/21 22/1/21
f 21/1/22 28/1/22 20/1/22
f 19/1/23 26/1/23 18/1/23
f 24/1/24 31/1/24 23/1/24
f 22/1/25 29/1/25 21/1/25
f 20/1/26 27/1/26 19/1/26
f 3/1/1 2/1/1 1/1/1
f 1/1/1 8/1/1 7/1/1
f 7/1/1 6/1/1 5/1/1
f 5/1/1 4/1/1 3/1/1
f 3/1/1 1/1/1 7/1/1
f 15/1/2 23/1/2 22/1/2
f 4/1/3 12/1/3 11/1/3
f 2/1/4 10/1/4 9/1/4
f 1/1/5 9/1/5 16/1/5
f 7/1/6 15/1/6 14/1/6
f 5/1/7 13/1/7 12/1/7
f 3/1/8 11/1/8 10/1/8
f 8/1/9 16/1/9 15/1/9
f 6/1/10 14/1/10 13/1/10
f 18/1/27 26/1/27 25/1/27
f 13/1/12 21/1/12 20/1/12
f 11/1/13 19/1/13 18/1/13
f 16/1/14 24/1/14 23/1/14
f 14/1/15 22/1/15 21/1/15
f 12/1/16 20/1/16 19/1/16
f 10/1/17 18/1/17 17/1/17
f 9/1/18 17/1/18 24/1/18
f 25/1/28 26/1/28 27/1/28
f 27/1/28 28/1/28 29/1/28
f 29/1/29 30/1/29 31/1/29
f 31/1/29 32/1/29 25/1/29
f 25/1/19 27/1/19 29/1/19
f 17/1/20 25/1/20 32/1/20
f 23/1/21 31/1/21 30/1/21
f 21/1/22 29/1/22 28/1/22
f 19/1/23 27/1/23 26/1/23
f 24/1/24 32/1/24 31/1/24
f 22/1/30 30/1/30 29/1/30
f 20/1/26 28/1/26 27/1/26
